<?xml version="1.0" encoding="UTF-8" standalone="no"?>
<!-- Created with Inkscape (http://www.inkscape.org/) -->

<svg
   xmlns:dc="http://purl.org/dc/elements/1.1/"
   xmlns:cc="http://creativecommons.org/ns#"
   xmlns:rdf="http://www.w3.org/1999/02/22-rdf-syntax-ns#"
   xmlns:svg="http://www.w3.org/2000/svg"
   xmlns="http://www.w3.org/2000/svg"
   xmlns:sodipodi="http://sodipodi.sourceforge.net/DTD/sodipodi-0.dtd"
   xmlns:inkscape="http://www.inkscape.org/namespaces/inkscape"
   width="48"
   height="48"
   id="svg2"
   version="1.1"
   inkscape:version="0.48.3.1 r9886"
   sodipodi:docname="New document 1">
  <defs
     id="defs4" />
  <sodipodi:namedview
     id="base"
     pagecolor="#ffffff"
     bordercolor="#666666"
     borderopacity="1.0"
     inkscape:pageopacity="0.0"
     inkscape:pageshadow="2"
     inkscape:zoom="17.645833"
     inkscape:cx="24"
     inkscape:cy="24"
     inkscape:document-units="px"
     inkscape:current-layer="layer1"
     showgrid="true"
     inkscape:window-width="1631"
     inkscape:window-height="1026"
     inkscape:window-x="49"
     inkscape:window-y="24"
     inkscape:window-maximized="1">
    <inkscape:grid
       type="xygrid"
       id="grid2985"
       empspacing="4"
       visible="true"
       enabled="true"
       snapvisiblegridlinesonly="true" />
  </sodipodi:namedview>
  <metadata
     id="metadata7">
    <rdf:RDF>
      <cc:Work
         rdf:about="">
        <dc:format>image/svg+xml</dc:format>
        <dc:type
           rdf:resource="http://purl.org/dc/dcmitype/StillImage" />
        <dc:title></dc:title>
      </cc:Work>
    </rdf:RDF>
  </metadata>
  <g
     inkscape:label="Layer 1"
     inkscape:groupmode="layer"
     id="layer1"
     transform="translate(0,-1004.3622)">
    <path
       style="fill:none;stroke:#000000;stroke-width:1.31914043px;stroke-linecap:butt;stroke-linejoin:miter;stroke-opacity:1"
       d="m 1,1005.3622 13,6 c 0,0 8,7 10,8 1.285739,0.6429 7,9 7,9 l 4,5 7,6 5,5"
       id="path2987"
       inkscape:connector-curvature="0"
       sodipodi:nodetypes="ccscccc" />
    <path
       sodipodi:type="arc"
       style="fill:#ff0000;fill-rule:evenodd;stroke:none"
       id="path2989"
       sodipodi:cx="4"
       sodipodi:cy="15"
       sodipodi:rx="4"
       sodipodi:ry="4"
       d="m 8,15 a 4,4 0 1 1 -8,0 4,4 0 1 1 8,0 z"
       transform="matrix(0.5,0,0,0.5,3,1002.8622)" />
    <path
       sodipodi:type="arc"
       style="fill:#ff0000;fill-rule:evenodd;stroke:none"
       id="path2989-8"
       sodipodi:cx="4"
       sodipodi:cy="15"
       sodipodi:rx="4"
       sodipodi:ry="4"
       d="m 8,15 a 4,4 0 1 1 -8,0 4,4 0 1 1 8,0 z"
       transform="matrix(0.5,0,0,0.5,15,1001.8622)" />
    <path
       sodipodi:type="arc"
       style="fill:#ff0000;fill-rule:evenodd;stroke:none"
       id="path2989-4"
       sodipodi:cx="4"
       sodipodi:cy="15"
       sodipodi:rx="4"
       sodipodi:ry="4"
       d="m 8,15 a 4,4 0 1 1 -8,0 4,4 0 1 1 8,0 z"
       transform="matrix(0.5,0,0,0.5,17,1011.8622)" />
    <path
       sodipodi:type="arc"
       style="fill:#ff0000;fill-rule:evenodd;stroke:none"
       id="path2989-1"
       sodipodi:cx="4"
       sodipodi:cy="15"
       sodipodi:rx="4"
       sodipodi:ry="4"
       d="m 8,15 a 4,4 0 1 1 -8,0 4,4 0 1 1 8,0 z"
       transform="matrix(0.5,0,0,0.5,23,1010.8622)" />
    <path
       sodipodi:type="arc"
       style="fill:#ff0000;fill-rule:evenodd;stroke:none"
       id="path2989-5"
       sodipodi:cx="4"
       sodipodi:cy="15"
       sodipodi:rx="4"
       sodipodi:ry="4"
       d="m 8,15 a 4,4 0 1 1 -8,0 4,4 0 1 1 8,0 z"
       transform="matrix(0.5,0,0,0.5,25,1018.8622)" />
    <path
       sodipodi:type="arc"
       style="fill:#ff0000;fill-rule:evenodd;stroke:none"
       id="path2989-6"
       sodipodi:cx="4"
       sodipodi:cy="15"
       sodipodi:rx="4"
       sodipodi:ry="4"
       d="m 8,15 a 4,4 0 1 1 -8,0 4,4 0 1 1 8,0 z"
       transform="matrix(0.5,0,0,0.5,33,1022.8622)" />
    <path
       sodipodi:type="arc"
       style="fill:#ff0000;fill-rule:evenodd;stroke:none"
       id="path2989-11"
       sodipodi:cx="4"
       sodipodi:cy="15"
       sodipodi:rx="4"
       sodipodi:ry="4"
       d="m 8,15 a 4,4 0 1 1 -8,0 4,4 0 1 1 8,0 z"
       transform="matrix(0.5,0,0,0.5,34,1028.8622)" />
    <path
       sodipodi:type="arc"
       style="fill:#ff0000;fill-rule:evenodd;stroke:none"
       id="path2989-40"
       sodipodi:cx="4"
       sodipodi:cy="15"
       sodipodi:rx="4"
       sodipodi:ry="4"
       d="m 8,15 a 4,4 0 1 1 -8,0 4,4 0 1 1 8,0 z"
       transform="matrix(0.5,0,0,0.5,42,1030.8622)" />
  </g>
</svg>
